<svg xmlns="http://www.w3.org/2000/svg" width="679.113" height="679.113" viewBox="0 0 179.682 179.682"><g style="fill:#4f93c2;fill-opacity:1"><path d="M108.194 56.34a50 50 0 0 0-44.203 49.663 50 50 0 0 0 50 50 50 50 0 0 0 50-50A50 50 0 0 0 119.79 56.34l-5.798 18.76a30.9 30.9 0 0 1 30.902 30.903 30.9 30.9 0 0 1-30.902 30.901 30.9 30.9 0 0 1-30.902-30.901A30.9 30.9 0 0 1 113.991 75.1Z" style="font-variation-settings:&quot;wght&quot;200;fill:#4f93c2;fill-opacity:1;stroke-width:16.0647;stroke-linecap:square;paint-order:stroke markers fill" transform="translate(-114.98 -100.626)scale(1.79681)"/><path d="m113.991 75.1 9.55 30.902h-19.099z" style="font-variation-settings:&quot;wght&quot;200;fill:#ef5a4d;fill-opacity:1;stroke-width:15.9286;stroke-linecap:square;paint-order:stroke markers fill" transform="translate(-114.98 -100.626)scale(1.79681)"/></g></svg>