<svg xmlns="http://www.w3.org/2000/svg" width="676.8" height="676.8" viewBox="0 0 179.07 179.07"><g style="fill:#4f93c2;fill-opacity:1"><path d="M108.243 56.76a49.577 49.577 0 0 0-43.829 49.243 49.577 49.577 0 0 0 49.577 49.577 49.577 49.577 0 0 0 49.578-49.577 49.577 49.577 0 0 0-43.83-49.243l-5.748 18.602a30.64 30.64 0 0 1 30.64 30.64 30.64 30.64 0 0 1-30.64 30.64 30.64 30.64 0 0 1-30.64-30.64 30.64 30.64 0 0 1 30.64-30.64z" style="font-variation-settings:&quot;wght&quot;200;fill:#7fb8e0;fill-opacity:1;stroke-width:15.9288;stroke-linecap:square;paint-order:stroke markers fill" transform="translate(-116.33 -101.743)scale(1.80597)"/><path d="m113.991 75.1 9.55 30.902h-19.099z" style="font-variation-settings:&quot;wght&quot;200;fill:#ff867b;fill-opacity:1;stroke-width:15.9286;stroke-linecap:square;paint-order:stroke markers fill" transform="translate(-116.33 -101.743)scale(1.80597)"/></g></svg>