<svg xmlns="http://www.w3.org/2000/svg" width="1413.496" height="683.857" viewBox="0 0 373.987 180.937"><g style="display:inline;fill:#4685b1;fill-opacity:1"><path d="M85.433 0q-3.409 0-5.782 1.406a10.9 10.9 0 0 0-3.825 3.716q-1.43 2.307-2.088 5.121a24.8 24.8 0 0 0-.66 5.672q0 2.858.66 5.672t2.088 5.144a11.2 11.2 0 0 0 3.825 3.715q2.374 1.385 5.782 1.385 3.406 0 5.759-1.385a11.2 11.2 0 0 0 3.825-3.715q1.45-2.33 2.11-5.144t.66-5.672-.66-5.672-2.11-5.121a10.9 10.9 0 0 0-3.825-3.716Q88.84 0 85.432 0m0 2.242q2.77 0 4.66 1.165a8.66 8.66 0 0 1 3.034 3.1q1.164 1.956 1.67 4.396.528 2.418.528 5.012 0 2.352-.528 4.77a15 15 0 0 1-1.67 4.419 9.24 9.24 0 0 1-3.034 3.253q-1.89 1.21-4.66 1.21-2.748 0-4.661-1.143a8.85 8.85 0 0 1-3.056-3.1q-1.143-1.957-1.67-4.397a24.6 24.6 0 0 1-.506-5.012q0-2.374.505-4.77a15.8 15.8 0 0 1 1.671-4.441q1.165-2.022 3.056-3.231 1.913-1.231 4.66-1.231m24.9 6.067q-4.154 0-6.506 3.32V8.836h-2.33v31.391l2.33-1.12v-10.97q1.077 1.78 2.682 2.747 1.605.946 3.605.946 2.793 0 4.793-1.43 2.022-1.428 3.12-4.066 1.1-2.638 1.1-6.287 0-3.584-1.1-6.221-1.076-2.64-3.055-4.067-1.956-1.451-4.638-1.45m21.332 0q-2.747 0-4.858 1.385-2.088 1.363-3.297 4-1.187 2.617-1.187 6.354 0 3.561 1.099 6.221 1.12 2.639 3.21 4.111 2.088 1.45 5.033 1.45 1.979 0 3.694-.703 1.737-.725 2.945-1.824l-1.362-1.583q-1.166 1.011-2.507 1.473a8 8 0 0 1-2.66.462q-2.352 0-3.846-1.1-1.473-1.12-2.243-3.1-.747-1.977-.923-4.55h15.366a10 10 0 0 0 .022-.638q.022-.307.022-.571 0-3.957-1.121-6.463-1.1-2.527-3.034-3.715-1.912-1.209-4.353-1.209m21.05 0q-2.11 0-3.802 1.055t-2.55 2.924V8.837h-2.33v22.466h2.33V18.047q0-3.735 1.539-5.65 1.538-1.912 4.528-1.912 2.704 0 4.067 1.759 1.385 1.736 1.385 5.188v13.871h2.33V17.85q0-4.792-1.869-7.167t-5.627-2.374m-21.05 2.088q2.11 0 3.452 1.166 1.362 1.143 2 3.055.66 1.913.66 4.199h-13.014q.22-4.419 2.154-6.42 1.935-2 4.748-2m-21.726.132q3.099 0 4.902 2.572 1.824 2.55 1.824 6.947 0 4.572-1.758 7.056-1.737 2.484-4.968 2.484-1.825 0-3.408-1.099t-2.704-3.143V14.42q.968-1.824 2.594-2.857a6.44 6.44 0 0 1 3.518-1.034" style="fill:#666;fill-opacity:1;stroke-width:154.694;stroke-linecap:round;stroke-linejoin:round;paint-order:stroke markers fill" transform="translate(82.762)scale(1.79986)"/><path d="m184.528 132.408-6.045 2.726v8.244q-1.737-2.22-4.638-2.22-2.77 0-4.88 1.494-2.089 1.473-3.276 4.133-1.165 2.638-1.165 6.111 0 5.562 2.44 8.683 2.44 3.1 6.815 3.1 3.297 0 4.704-2.396v1.868h6.045zm-87.418.967v30.776h6.331v-24.818h8.398q1.45 0 2.264.571.835.572 1.143 1.451.33.879.33 1.803 0 1.01-.352 1.912-.33.88-1.165 1.43-.813.549-2.22.549h-5.406l3.032 5.957 5.671 11.145h7.079l-5.892-12.09q1.913-.703 3.21-2.154a10 10 0 0 0 1.935-3.254q.66-1.781.659-3.517 0-2.594-.99-4.815-.966-2.242-3.253-3.583-2.265-1.363-6.133-1.363zm34.795 7.782q-3.165 0-5.496 1.451-2.308 1.43-3.583 4.09-1.253 2.637-1.253 6.242 0 5.474 2.77 8.618 2.77 3.12 7.562 3.12 3.165 0 5.474-1.406 2.308-1.428 3.539-4.067 1.23-2.638 1.231-6.265 0-3.627-1.253-6.265t-3.561-4.067q-2.286-1.45-5.43-1.45m21.68 0q-2.528 0-4.99.726a15.8 15.8 0 0 0-4.44 2.044L146 148.61q1.846-1.209 3.583-1.803 1.76-.594 3.408-.594 1.935 0 2.945.88 1.034.857 1.033 2.528v1.34q-.945-.439-2.308-.68a15.6 15.6 0 0 0-2.77-.243q-2.681 0-4.704.924-2.023.9-3.166 2.55-1.12 1.648-1.12 3.847 0 3.363 2.154 5.342t5.847 1.978q1.89 0 3.43-.572 1.56-.571 2.637-1.67v1.714h5.958v-14.31q0-4.332-2.33-6.508-2.33-2.175-7.013-2.176m-21.68 5.804q1.979 0 3.1 1.582 1.143 1.562 1.143 4.397 0 2.814-1.121 4.375-1.1 1.56-3.122 1.56-2 0-3.143-1.582t-1.143-4.353q0-2.792 1.143-4.374 1.143-1.605 3.143-1.605m42.885 0q1.1 0 2.089.462 1.011.44 1.604 1.23v8.596a3.6 3.6 0 0 1-1.473 1.23q-.856.397-2.22.397-1.363 0-2.308-.682-.945-.703-1.429-2.022-.483-1.32-.484-3.276 0-2.88 1.1-4.396 1.12-1.54 3.12-1.54m-21.908 7.826q1.098 0 2.154.197 1.055.198 1.934.594v2.242a6.4 6.4 0 0 1-2.11 1.341 6.6 6.6 0 0 1-2.462.462q-1.715 0-2.66-.593-.945-.615-.945-1.693 0-1.21 1.077-1.869 1.1-.681 3.012-.681" style="display:inline;fill:#ef5a4d;fill-opacity:1;stroke-width:154.694;stroke-linecap:round;stroke-linejoin:round;paint-order:stroke markers fill" transform="translate(39.389 -177.286)scale(1.79986)"/><path d="m171.371 166.757-6.045 2.814v28.93h6.045v-9.805l1.847-1.781 6.111 11.585h6.573l-8.2-15.894 6.705-6.573h-7.144l-5.892 5.936zm-74.26.967V198.5h14.662q2.924 0 4.924-.792 2.023-.812 3.232-2.132a8.1 8.1 0 0 0 1.78-2.945 9.8 9.8 0 0 0 .572-3.276q0-1.319-.484-2.704a6.9 6.9 0 0 0-1.495-2.506q-1.01-1.121-2.66-1.736 2-.901 2.792-2.595.813-1.714.813-3.78a8.8 8.8 0 0 0-.945-3.98q-.923-1.911-3.143-3.121-2.199-1.21-5.98-1.21zm6.33 5.891h7.826q1.516 0 2.286.484.77.462 1.012 1.165.263.704.264 1.45 0 1.43-1.056 2.287-1.032.857-3.275.857h-4.065v5.694h4.439q2.088 0 3.165.55 1.077.549 1.473 1.407.396.835.396 1.758 0 .726-.352 1.495-.33.747-1.165 1.275-.813.528-2.286.528h-8.662v-12.707zm29.571 1.89q-3.165 0-5.495 1.452-2.308 1.428-3.583 4.088-1.254 2.638-1.254 6.244 0 5.474 2.77 8.617 2.77 3.122 7.562 3.122 3.165 0 5.474-1.407 2.309-1.43 3.54-4.067t1.23-6.265-1.253-6.265q-1.253-2.639-3.56-4.067-2.288-1.451-5.43-1.451m20.804 0q-3.165 0-5.495 1.452-2.31 1.428-3.584 4.088-1.253 2.638-1.253 6.244 0 5.474 2.77 8.617 2.77 3.122 7.562 3.122 3.165 0 5.474-1.407 2.309-1.43 3.54-4.067t1.23-6.265-1.252-6.265q-1.254-2.639-3.562-4.067-2.286-1.451-5.43-1.451m-20.804 5.804q1.979 0 3.1 1.583 1.143 1.56 1.143 4.397 0 2.814-1.121 4.374-1.1 1.56-3.122 1.56-2 0-3.143-1.582t-1.144-4.352q0-2.792 1.144-4.375 1.143-1.605 3.143-1.605m20.804 0q1.98 0 3.1 1.583 1.143 1.56 1.143 4.397 0 2.814-1.12 4.374-1.1 1.56-3.123 1.56-1.999 0-3.143-1.582t-1.143-4.352q0-2.792 1.143-4.375 1.143-1.605 3.143-1.605" style="display:inline;fill:#4f93c2;fill-opacity:1;stroke-width:154.694;stroke-linecap:round;stroke-linejoin:round;paint-order:stroke markers fill" transform="translate(39.389 -177.286)scale(1.79986)"/></g><g style="fill:#4f93c2;fill-opacity:1"><path d="M108.194 56.34a50 50 0 0 0-44.203 49.663 50 50 0 0 0 50 50 50 50 0 0 0 50-50A50 50 0 0 0 119.79 56.34l-5.798 18.76a30.9 30.9 0 0 1 30.902 30.903 30.9 30.9 0 0 1-30.902 30.901 30.9 30.9 0 0 1-30.902-30.901A30.9 30.9 0 0 1 113.991 75.1Z" style="font-variation-settings:&quot;wght&quot;200;fill:#4f93c2;fill-opacity:1;stroke-width:16.0647;stroke-linecap:square;paint-order:stroke markers fill" transform="translate(-114.98 -100.626)scale(1.79681)"/><path d="m113.991 75.1 9.55 30.902h-19.099z" style="font-variation-settings:&quot;wght&quot;200;fill:#ef5a4d;fill-opacity:1;stroke-width:15.9286;stroke-linecap:square;paint-order:stroke markers fill" transform="translate(-114.98 -100.626)scale(1.79681)"/></g></svg>