<?xml version="1.0" encoding="UTF-8" standalone="no"?>
<!-- Created with Inkscape (http://www.inkscape.org/) -->

<svg
   width="261.17352mm"
   height="220.0041mm"
   viewBox="0 0 261.17352 220.00411"
   version="1.1"
   id="svg1"
   inkscape:version="1.4.2 (ebf0e940d0, 2025-05-08)"
   sodipodi:docname="orb-symbol-dark.svg"
   xmlns:inkscape="http://www.inkscape.org/namespaces/inkscape"
   xmlns:sodipodi="http://sodipodi.sourceforge.net/DTD/sodipodi-0.dtd"
   xmlns="http://www.w3.org/2000/svg"
   xmlns:svg="http://www.w3.org/2000/svg">
  <sodipodi:namedview
     id="namedview1"
     pagecolor="#000000"
     bordercolor="#000000"
     borderopacity="0.25"
     inkscape:showpageshadow="2"
     inkscape:pageopacity="0.0"
     inkscape:pagecheckerboard="0"
     inkscape:deskcolor="#d1d1d1"
     inkscape:document-units="mm"
     showguides="true"
     inkscape:zoom="0.96433907"
     inkscape:cx="467.15934"
     inkscape:cy="363.97986"
     inkscape:window-width="3424"
     inkscape:window-height="1328"
     inkscape:window-x="26"
     inkscape:window-y="23"
     inkscape:window-maximized="0"
     inkscape:current-layer="layer7">
    <sodipodi:guide
       position="85.001094,0.0018734068"
       orientation="0,-1"
       id="guide30"
       inkscape:locked="false" />
    <sodipodi:guide
       position="85.001094,0.0018734068"
       orientation="1,0"
       id="guide31"
       inkscape:locked="false" />
    <sodipodi:guide
       position="105.0008,100.00228"
       orientation="0,-1"
       id="guide32"
       inkscape:locked="false" />
    <sodipodi:guide
       position="105.0008,120.0026"
       orientation="0,-1"
       id="guide33"
       inkscape:locked="false" />
    <sodipodi:guide
       position="105.01329,220.0041"
       orientation="0,-1"
       id="guide34"
       inkscape:locked="false" />
    <sodipodi:guide
       position="125.0136,200.00381"
       orientation="0,-1"
       id="guide35"
       inkscape:locked="false" />
    <sodipodi:guide
       position="105.00082,20.002074"
       orientation="0,-1"
       id="guide36"
       inkscape:locked="false" />
    <sodipodi:guide
       position="144.69092,200.0038"
       orientation="1,0"
       id="guide38"
       inkscape:locked="false" />
    <sodipodi:guide
       position="124.69091,180.0035"
       orientation="0,-1"
       id="guide39"
       inkscape:locked="false" />
    <sodipodi:guide
       position="162.91566,125.21525"
       orientation="0.70710678,0.70710678"
       id="guide41"
       inkscape:locked="false"
       inkscape:label=""
       inkscape:color="rgb(0,134,229)" />
    <sodipodi:guide
       position="80.000484,120.0026"
       orientation="1,0"
       id="guide48"
       inkscape:locked="false" />
    <sodipodi:guide
       position="105.00031,109.94543"
       orientation="0,-1"
       id="guide49"
       inkscape:locked="false" />
    <sodipodi:guide
       position="20.000021,169.94537"
       orientation="1,0"
       id="guide50"
       inkscape:locked="false" />
    <sodipodi:guide
       position="85.001094,125.00238"
       orientation="0,-1"
       id="guide51"
       inkscape:locked="false" />
    <sodipodi:guide
       position="85.001094,95.002183"
       orientation="0,-1"
       id="guide52"
       inkscape:locked="false" />
    <sodipodi:guide
       position="216.17686,109.94543"
       orientation="1,0"
       id="guide53"
       inkscape:locked="false" />
    <sodipodi:guide
       position="258.73327,-72.725297"
       orientation="1,0"
       id="guide54"
       inkscape:locked="false" />
    <sodipodi:guide
       position="20.000022,129.94542"
       orientation="0,-1"
       id="guide55"
       inkscape:locked="false" />
    <sodipodi:guide
       position="-40.960004,109.94543"
       orientation="1,0"
       id="guide57"
       inkscape:locked="false" />
    <sodipodi:guide
       position="263.67351,109.94544"
       orientation="1,0"
       id="guide58"
       inkscape:locked="false" />
  </sodipodi:namedview>
  <defs
     id="defs1" />
  <g
     inkscape:groupmode="layer"
     id="layer7"
     inkscape:label="Logo"
     transform="translate(-24.620203,24.701999)">
    <path
       id="path25"
       style="font-variation-settings:'wght' 200;display:inline;opacity:1;fill:#7fb88c;stroke-width:1.8;stroke-linejoin:bevel;stroke-dasharray:7.2, 10.8;paint-order:stroke markers fill;fill-opacity:1"
       d="m 44.620015,65.357103 c -11.045549,1.04e-4 -19.999709,8.954264 -19.999812,19.999813 1.05e-4,11.045547 8.954265,19.999714 19.999812,19.999814 7.168818,1.1e-4 13.789395,-3.83667 17.353463,-10.056752 l 107.337632,-10e-4 -14.14074,14.141252 0.008,0.008 c -1.23845,1.23254 -2.31004,2.62207 -3.1874,4.13308 -3.57255,6.1878 -3.57255,13.81149 0,19.99929 0.87736,1.51101 1.94895,2.90054 3.1874,4.13308 l -0.008,0.008 37.57807,37.57807 h -63.12741 l 0.0114,-74.99956 h -20.01121 v 75.00008 c -3.5e-4,5.30453 2.10668,10.3919 5.85752,14.1428 3.75039,3.75034 8.83692,5.85734 14.14074,5.85753 h 63.06385 c 0.0239,0.005 0.0705,-0.004 0.0847,-0.005 3.5034,-0.002 6.94482,-0.92412 9.97975,-2.67426 7.83901,-4.52581 11.66093,-13.75249 9.3183,-22.49578 -0.90869,-3.39098 -2.69398,-6.48303 -5.17643,-8.96535 l -0.004,-0.005 -37.57445,-37.57445 14.14177,-14.14125 c 7.81044,-7.81022 7.81044,-20.473329 0,-28.283551 -3.75056,-3.749953 -8.83707,-5.856569 -14.14073,-5.85649 v -0.001 l -107.404301,0.001 C 58.326482,69.143833 51.74183,65.356881 44.620015,65.357103 Z"
       sodipodi:nodetypes="ccccccccccccccccccccccccccccccc"
       inkscape:label="B" />
    <path
       id="path30"
       style="font-variation-settings:'wght' 200;display:inline;opacity:1;fill:#8d93e3;stroke-width:1.8;stroke-linejoin:bevel;stroke-dasharray:7.2, 10.8;paint-order:stroke markers fill;fill-opacity:1"
       d="m 129.63343,-24.701999 a 19.999207,19.999207 0 0 0 -14.14125,5.85804 19.999207,19.999207 0 0 0 -5.85805,14.1422895 h -0.0129 V 70.299954 h 19.99981 V -4.6903007 l 0.0124,-0.012402 v 0.00103 h 39.6782 l -14.14127,14.1412589 0.008,0.00827 a 19.999207,19.999207 0 0 0 -3.1874,4.1330808 19.999207,19.999207 0 0 0 0,19.999296 19.999207,19.999207 0 0 0 3.1874,4.133081 l -0.008,0.0083 52.14256,52.14307 0.007,-0.0067 a 19.999207,19.999207 0 0 0 6.05957,3.919658 19.999207,19.999207 0 0 0 7.41764,1.520837 v 0.0021 h 15.00012 v 4.999181 a 5.0005,5.0005 0 0 0 6.74997,4.68343 l 40.00014,-14.943272 a 5.0005,5.0005 0 0 0 0.0114,-9.361185 l -39.99962,-15.05903 a 5.0005,5.0005 0 0 0 -6.76186,4.679818 v 5.000728 H 221.03126 L 169.31142,23.580926 183.45319,9.4391533 a 19.999207,19.999207 0 0 0 0,-28.2830283 19.999207,19.999207 0 0 0 -14.14073,-5.85649 v -0.0016 z"
       inkscape:label="R" />
  </g>
</svg>
