<?xml version="1.0" encoding="UTF-8" standalone="no"?>
<!-- Created with Inkscape (http://www.inkscape.org/) -->

<svg
   width="159.81345mm"
   height="180.93706mm"
   viewBox="0 0 159.81344 180.93706"
   version="1.1"
   id="svg1"
   inkscape:version="1.4.2 (ebf0e940d0, 2025-05-08)"
   sodipodi:docname="orb-textmark.svg"
   xmlns:inkscape="http://www.inkscape.org/namespaces/inkscape"
   xmlns:sodipodi="http://sodipodi.sourceforge.net/DTD/sodipodi-0.dtd"
   xmlns="http://www.w3.org/2000/svg"
   xmlns:svg="http://www.w3.org/2000/svg">
  <sodipodi:namedview
     id="namedview1"
     pagecolor="#ffffff"
     bordercolor="#000000"
     borderopacity="0.25"
     inkscape:showpageshadow="2"
     inkscape:pageopacity="0.0"
     inkscape:pagecheckerboard="0"
     inkscape:deskcolor="#d1d1d1"
     inkscape:document-units="mm"
     showguides="false"
     inkscape:zoom="0.75009376"
     inkscape:cx="-757.23867"
     inkscape:cy="266.63333"
     inkscape:window-width="3424"
     inkscape:window-height="1328"
     inkscape:window-x="26"
     inkscape:window-y="23"
     inkscape:window-maximized="0"
     inkscape:current-layer="layer7">
    <sodipodi:guide
       position="-178.67242,20.002169"
       orientation="0,-1"
       id="guide30"
       inkscape:locked="false" />
    <sodipodi:guide
       position="-178.67242,20.002169"
       orientation="1,0"
       id="guide31"
       inkscape:locked="false" />
    <sodipodi:guide
       position="-158.67271,120.00257"
       orientation="0,-1"
       id="guide32"
       inkscape:locked="false" />
    <sodipodi:guide
       position="-158.67271,140.00289"
       orientation="0,-1"
       id="guide33"
       inkscape:locked="false" />
    <sodipodi:guide
       position="-158.66022,240.0044"
       orientation="0,-1"
       id="guide34"
       inkscape:locked="false" />
    <sodipodi:guide
       position="-138.65991,220.00411"
       orientation="0,-1"
       id="guide35"
       inkscape:locked="false" />
    <sodipodi:guide
       position="-158.67269,40.00237"
       orientation="0,-1"
       id="guide36"
       inkscape:locked="false" />
    <sodipodi:guide
       position="-118.98259,220.0041"
       orientation="1,0"
       id="guide38"
       inkscape:locked="false" />
    <sodipodi:guide
       position="-138.9826,200.0038"
       orientation="0,-1"
       id="guide39"
       inkscape:locked="false" />
    <sodipodi:guide
       position="-100.75785,145.21555"
       orientation="0.70710678,0.70710678"
       id="guide41"
       inkscape:locked="false"
       inkscape:label=""
       inkscape:color="rgb(0,134,229)" />
    <sodipodi:guide
       position="-183.67303,140.00289"
       orientation="1,0"
       id="guide48"
       inkscape:locked="false" />
    <sodipodi:guide
       position="-158.6732,129.94572"
       orientation="0,-1"
       id="guide49"
       inkscape:locked="false" />
    <sodipodi:guide
       position="-243.67349,189.94567"
       orientation="1,0"
       id="guide50"
       inkscape:locked="false" />
    <sodipodi:guide
       position="-184.94113,115.00231"
       orientation="0,-1"
       id="guide51"
       inkscape:locked="false" />
    <sodipodi:guide
       position="-178.67242,115.00248"
       orientation="0,-1"
       id="guide52"
       inkscape:locked="false" />
    <sodipodi:guide
       position="-47.496649,129.94572"
       orientation="1,0"
       id="guide53"
       inkscape:locked="false" />
    <sodipodi:guide
       position="-4.9402386,-52.725002"
       orientation="1,0"
       id="guide54"
       inkscape:locked="false" />
    <sodipodi:guide
       position="-243.67349,149.94572"
       orientation="0,-1"
       id="guide55"
       inkscape:locked="false" />
    <sodipodi:guide
       position="-304.63352,129.94572"
       orientation="1,0"
       id="guide57"
       inkscape:locked="false" />
    <sodipodi:guide
       position="1.4180122e-06,129.94573"
       orientation="1,0"
       id="guide58"
       inkscape:locked="false" />
  </sodipodi:namedview>
  <defs
     id="defs1" />
  <g
     inkscape:groupmode="layer"
     id="layer7"
     inkscape:label="Logo"
     transform="translate(-288.29372,5.8330361)">
    <g
       id="g3"
       transform="matrix(1.7998632,0,0,1.7998632,156.88196,-5.832106)"
       style="display:inline;fill:#000000">
      <path
         id="path51"
         style="font-size:43.9659px;font-family:Overpass;-inkscape-font-specification:'Overpass, @wght=200';font-variation-settings:'wght' 200;letter-spacing:-3.17504px;fill:#1e1e1e;stroke-width:154.694;stroke-linecap:round;stroke-linejoin:round;paint-order:stroke markers fill"
         d="m 85.432511,-5.1676432e-4 c -2.271573,0 -4.198792,0.46869315432 -5.781559,1.40663246432 -1.582773,0.9232807 -2.857837,2.1620688 -3.825089,3.7155355 -0.952595,1.5388067 -1.648586,3.2457779 -2.088245,5.1216508 -0.439659,1.87588 -0.659908,3.766812 -0.659908,5.672006 0,1.905186 0.220249,3.795608 0.659908,5.671488 0.439659,1.875873 1.13565,3.590405 2.088245,5.143872 0.967252,1.538807 2.242316,2.777079 3.825089,3.715019 1.582767,0.92328 3.509986,1.384928 5.781559,1.384928 2.271574,0 4.191225,-0.461648 5.759339,-1.384928 1.582773,-0.93794 2.857836,-2.176212 3.825089,-3.715019 0.967247,-1.553467 1.670806,-3.267999 2.110466,-5.143872 0.43966,-1.87588 0.659391,-3.766302 0.659391,-5.671488 0,-1.905194 -0.219731,-3.796126 -0.659391,-5.672006 C 96.687745,8.3674291 95.984186,6.6604579 95.016939,5.1216512 94.049686,3.5681845 92.774623,2.3293964 91.19185,1.4061157 89.623736,0.46817639 87.704085,-5.1676432e-4 85.432511,-5.1676432e-4 Z m 0,2.24224036432 c 1.846567,0 3.399821,0.3885702 4.660181,1.1653036 1.260353,0.7620733 2.27185,1.7952324 3.033923,3.0995524 0.776734,1.3043267 1.333626,2.7693808 1.670699,4.3961144 0.351727,1.612086 0.527617,3.283287 0.527617,5.012614 0,1.568113 -0.17589,3.158164 -0.527617,4.770251 -0.337073,1.597427 -0.893965,3.070048 -1.670699,4.418335 -0.762073,1.348287 -1.77357,2.432848 -3.033923,3.253548 -1.26036,0.80604 -2.813614,1.209229 -4.660181,1.209229 -1.831913,0 -3.38569,-0.381003 -4.660697,-1.143083 -1.26036,-0.762073 -2.278901,-1.795749 -3.055627,-3.100069 -0.76208,-1.30432 -1.318973,-2.769374 -1.6707,-4.396114 -0.337071,-1.62674 -0.505395,-3.297431 -0.505395,-5.012097 0,-1.582774 0.168324,-3.173342 0.505395,-4.770769 0.351727,-1.6120863 0.90862,-3.0922688 1.6707,-4.4405554 0.776726,-1.3482867 1.795267,-2.4252874 3.055627,-3.2313274 1.275007,-0.8207 2.828784,-1.2309326 4.660697,-1.2309326 z m 24.901319,6.0673299 c -2.76984,0 -4.93846,1.1062306 -6.50658,3.3191775 V 8.8366699 h -2.33009 V 40.228035 l 2.33009,-1.120861 V 28.137817 c 0.71812,1.18708 1.61218,2.102803 2.68201,2.747636 1.06984,0.630174 2.27132,0.945162 3.60495,0.945162 1.86123,0 3.45884,-0.47626 4.79247,-1.428853 1.34829,-0.952593 2.38849,-2.308295 3.12126,-4.066935 0.73276,-1.758634 1.09916,-3.854175 1.09916,-6.286955 0,-2.388813 -0.3664,-4.462692 -1.09916,-6.221326 -0.71812,-1.75864 -1.73666,-3.114342 -3.05563,-4.066935 -1.30433,-0.9672467 -2.85053,-1.4505575 -4.63848,-1.4505575 z m 21.33152,0 c -1.83192,0 -3.45119,0.4616484 -4.8581,1.3849284 -1.39226,0.9086271 -2.49144,2.2421491 -3.29748,4.0007891 -0.79138,1.74398 -1.187,3.861701 -1.187,6.353101 0,2.37416 0.36639,4.448032 1.09915,6.221326 0.74742,1.758633 1.81737,3.128953 3.20963,4.11086 1.39225,0.967244 3.06999,1.450555 5.0338,1.450557 1.31897,-1e-6 2.5502,-0.234351 3.69331,-0.703316 1.15777,-0.483627 2.13951,-1.091928 2.94556,-1.824695 l -1.36271,-1.582849 c -0.77672,0.674147 -1.61233,1.165018 -2.5063,1.472778 -0.87932,0.30776 -1.76582,0.461988 -2.65979,0.461988 -1.56812,0 -2.85023,-0.366391 -3.84679,-1.099158 -0.9819,-0.74742 -1.7293,-1.780579 -2.24224,-3.099552 -0.49828,-1.31898 -0.80622,-2.83596 -0.92346,-4.550627 h 15.36598 c 0.0147,-0.219833 0.0222,-0.432514 0.0222,-0.637687 0.0147,-0.205174 0.0217,-0.395675 0.0217,-0.571542 0,-2.637953 -0.37344,-4.791954 -1.12086,-6.462654 -0.73277,-1.68536 -1.74426,-2.923632 -3.03393,-3.7150189 -1.27501,-0.80604 -2.72597,-1.2092286 -4.3527,-1.2092286 z m 21.05039,0 c -1.4069,0 -2.67441,0.3517795 -3.80287,1.0552328 -1.12846,0.7034537 -1.97867,1.6781527 -2.55023,2.9238527 V 8.8366699 h -2.33009 V 31.302999 h 2.33009 V 18.047477 c 0,-2.4914 0.51306,-4.374771 1.53893,-5.649784 1.02587,-1.275007 2.53528,-1.912545 4.5284,-1.912545 1.8026,0 3.1583,0.586129 4.06694,1.758549 0.92328,1.157773 1.38493,2.887434 1.38493,5.188314 v 13.870988 h 2.33009 V 17.849556 c 0,-3.19486 -0.62292,-5.583714 -1.86862,-7.166487 -1.2457,-1.5827668 -3.12151,-2.3740155 -5.62757,-2.3740155 z m -21.05039,2.0882445 c 1.4069,0 2.55749,0.388577 3.45147,1.165304 0.90862,0.76208 1.57539,1.78062 2.00039,3.055627 0.43966,1.275013 0.65939,2.674557 0.65939,4.19871 h -13.01367 c 0.14655,-2.94572 0.86472,-5.085613 2.15439,-6.419246 1.28966,-1.333627 2.87215,-2.000395 4.74803,-2.000395 z m -21.72684,0.131775 c 2.0664,0 3.70029,0.857263 4.90203,2.571936 1.21638,1.700013 1.82469,4.015803 1.82469,6.946863 0,3.0483 -0.58613,5.400363 -1.75855,7.056417 -1.15777,1.656046 -2.81384,2.484086 -4.96817,2.484086 -1.21639,0 -2.35236,-0.366391 -3.40754,-1.099158 -1.05518,-0.73276 -1.9563,-1.780531 -2.70372,-3.143477 V 14.420308 c 0.64484,-1.216393 1.50915,-2.168906 2.59364,-2.857706 1.0845,-0.6888 2.25727,-1.033529 3.51762,-1.033529 z" />
      <path
         id="text48"
         style="font-size:43.9659px;font-family:Overpass;-inkscape-font-specification:'Overpass, @wght=800';font-variation-settings:'wght' 800;letter-spacing:-3.56538px;display:inline;fill:#6166a3;stroke-width:154.694;stroke-linecap:round;stroke-linejoin:round;paint-order:stroke markers fill"
         d="m 184.5283,132.40801 -6.04511,2.72593 v 8.24394 c -1.15777,-1.48019 -2.70398,-2.22054 -4.63848,-2.22054 -1.84656,0 -3.47341,0.49844 -4.88032,1.495 -1.39225,0.98191 -2.48387,2.35927 -3.27525,4.13257 -0.77674,1.75863 -1.16531,3.79571 -1.16531,6.11125 0,3.7078 0.81343,6.60215 2.44017,8.68319 1.62674,2.0664 3.89816,3.09956 6.81457,3.09956 2.19829,0 3.76668,-0.7983 4.70462,-2.39572 v 1.8681 h 6.04511 z m -87.417922,0.96738 v 30.7759 h 6.330882 v -11.14506 -5.95726 -5.87922 -1.8371 h 8.39742 c 0.96725,0 1.72222,0.1905 2.26446,0.57154 0.55691,0.38103 0.93791,0.86486 1.14308,1.45107 0.21983,0.58622 0.3297,1.18696 0.3297,1.80248 0,0.67414 -0.11744,1.31168 -0.35192,1.91254 -0.21983,0.58622 -0.60789,1.06248 -1.16479,1.42886 -0.54224,0.36638 -1.28259,0.54983 -2.22053,0.54983 h -5.40536 l 3.03134,5.95726 5.67149,11.14506 h 7.07864 l -5.89163,-12.09022 c 1.27501,-0.46897 2.34496,-1.18714 3.20962,-2.15439 0.86467,-0.98191 1.50977,-2.06647 1.93477,-3.25355 0.43966,-1.18708 0.65939,-2.35933 0.65939,-3.5171 0,-1.72932 -0.3296,-3.3345 -0.98909,-4.81469 -0.64483,-1.49484 -1.72939,-2.68927 -3.25355,-3.58324 -1.50949,-0.90863 -3.55414,-1.36271 -6.13347,-1.36271 z m 34.794772,7.78195 c -2.11036,0 -3.94232,0.48382 -5.49579,1.45108 -1.5388,0.95259 -2.73323,2.31534 -3.58324,4.08864 -0.83535,1.75863 -1.25315,3.83955 -1.25315,6.24303 0,3.64916 0.92329,6.52185 2.76985,8.61756 1.84657,2.08105 4.36748,3.12126 7.56233,3.12126 2.11037,0 3.93476,-0.4687 5.47357,-1.40664 1.53881,-0.95259 2.71863,-2.3083 3.53932,-4.06693 0.8207,-1.75864 1.23145,-3.84713 1.23145,-6.26525 0,-2.41813 -0.4178,-4.50661 -1.25315,-6.26525 -0.83536,-1.75864 -2.02274,-3.11383 -3.56154,-4.06642 -1.52416,-0.96726 -3.33394,-1.45108 -5.42965,-1.45108 z m 21.67982,0 c -1.68536,0 -3.34849,0.24191 -4.98988,0.72554 -1.62674,0.46897 -3.10692,1.15035 -4.44056,2.04432 l 1.8464,4.6824 c 1.23105,-0.80604 2.42548,-1.40678 3.58325,-1.80247 1.17242,-0.3957 2.30839,-0.59376 3.40754,-0.59376 1.28967,0 2.27142,0.29332 2.94556,0.87953 0.6888,0.57156 1.03301,1.41421 1.03301,2.52801 v 1.341 c -0.63017,-0.2931 -1.39924,-0.5204 -2.30787,-0.68161 -0.89397,-0.16121 -1.81726,-0.24184 -2.76986,-0.24184 -1.78794,0 -3.35633,0.30793 -4.70462,0.92345 -1.34829,0.60087 -2.40362,1.45057 -3.1657,2.54972 -0.74742,1.09914 -1.12086,2.38178 -1.12086,3.84731 0,2.24226 0.71818,4.02281 2.15439,5.34179 1.43622,1.31897 3.3851,1.97818 5.84719,1.97818 1.26035,0 2.40337,-0.19051 3.42925,-0.57155 1.04052,-0.38103 1.91997,-0.93793 2.63808,-1.6707 v 1.71463 h 5.95726 v -14.31076 c 0,-2.88709 -0.77663,-5.05622 -2.33009,-6.50709 -1.55346,-1.45088 -3.89091,-2.1761 -7.01249,-2.1761 z m -21.67982,5.80327 c 1.31898,0 2.35214,0.52766 3.09956,1.58285 0.76207,1.04052 1.14308,2.50609 1.14308,4.39663 0,1.87587 -0.37344,3.3344 -1.12086,4.37492 -0.73277,1.04053 -1.77349,1.56063 -3.12178,1.56063 -1.33363,0 -2.3814,-0.52767 -3.14347,-1.58285 -0.76208,-1.05518 -1.14309,-2.50614 -1.14309,-4.3527 0,-1.86123 0.38101,-3.31923 1.14309,-4.37441 0.76207,-1.06984 1.80984,-1.60507 3.14347,-1.60507 z m 42.88472,0 c 0.73277,0 1.42928,0.15422 2.08877,0.46198 0.67414,0.29311 1.20886,0.70334 1.60455,1.23094 v 8.59534 c -0.39569,0.5569 -0.88657,0.96714 -1.47278,1.23093 -0.57156,0.26379 -1.31191,0.39584 -2.22054,0.39584 -0.90862,0 -1.67769,-0.2273 -2.30787,-0.68161 -0.63018,-0.46897 -1.10644,-1.14278 -1.42885,-2.0221 -0.32242,-0.87932 -0.48369,-1.97145 -0.48369,-3.27577 0,-1.91984 0.36639,-3.38542 1.09916,-4.39663 0.74742,-1.02587 1.78762,-1.53892 3.12125,-1.53892 z m -21.90822,7.82639 c 0.73277,0 1.45094,0.0655 2.15439,0.19741 0.70346,0.1319 1.34804,0.32997 1.93425,0.59376 v 2.24224 c -0.61552,0.58621 -1.31908,1.03324 -2.11047,1.341 -0.77673,0.30776 -1.5972,0.46147 -2.46186,0.46147 -1.14311,0 -2.02961,-0.19755 -2.65979,-0.59324 -0.63017,-0.41035 -0.94516,-0.97482 -0.94516,-1.69292 0,-0.80605 0.35883,-1.42896 1.07694,-1.86862 0.73276,-0.45432 1.73669,-0.6811 3.0117,-0.6811 z"
         transform="translate(-24.098297,-98.499999)" />
      <path
         id="text49"
         style="font-size:43.9659px;font-family:Overpass;-inkscape-font-specification:'Overpass, @wght=800';font-variation-settings:'wght' 800;letter-spacing:-4.31802px;display:inline;fill:#5e8062;stroke-width:154.694;stroke-linecap:round;stroke-linejoin:round;paint-order:stroke markers fill"
         d="m 171.37148,166.75681 -6.04511,2.81379 v 28.9295 h 6.04511 v -9.80457 l 1.8464,-1.78077 6.11125,11.58534 h 6.57324 l -8.20001,-15.89361 6.70501,-6.57324 h -7.14426 l -5.89163,5.93556 z m -74.261102,0.96687 v 30.77642 h 14.662672 c 1.94915,0 3.59061,-0.26409 4.92425,-0.79169 1.34828,-0.54224 2.42528,-1.25285 3.23132,-2.13217 0.8207,-0.87932 1.41439,-1.86106 1.78077,-2.94555 0.38104,-1.0845 0.57154,-2.17662 0.57154,-3.27577 0,-0.87931 -0.16127,-1.78043 -0.48369,-2.70371 -0.30776,-0.92329 -0.8062,-1.75889 -1.495,-2.50631 -0.67414,-0.74742 -1.56064,-1.32598 -2.65978,-1.73633 1.33363,-0.60086 2.26397,-1.46569 2.79156,-2.59415 0.54225,-1.14312 0.81339,-2.40357 0.81339,-3.78117 0,-1.39225 -0.31499,-2.71821 -0.94517,-3.97857 -0.61552,-1.27501 -1.66329,-2.31573 -3.14347,-3.12177 -1.46553,-0.80604 -3.45877,-1.20923 -5.97948,-1.20923 z m 6.330882,5.89163 h 7.82588 c 1.01122,0 1.77323,0.16127 2.28616,0.48369 0.51294,0.30776 0.8501,0.69582 1.01131,1.16479 0.17586,0.46897 0.26407,0.95279 0.26407,1.45107 0,0.9526 -0.35178,1.71462 -1.05524,2.28617 -0.6888,0.57156 -1.78093,0.85731 -3.27577,0.85731 h -4.06435 v 5.69371 h 4.43849 c 1.39226,0 2.44707,0.18293 3.16518,0.54932 0.71811,0.36638 1.20899,0.8356 1.47278,1.40715 0.2638,0.55691 0.39584,1.14303 0.39584,1.75855 0,0.48363 -0.11691,0.98206 -0.3514,1.495 -0.21982,0.49828 -0.60839,0.92313 -1.1653,1.27486 -0.54225,0.35172 -1.30427,0.52761 -2.28617,0.52761 h -5.66942 -2.99206 v -7.01249 -5.69371 z m 29.5708,1.89032 c -2.11036,0 -3.94181,0.48383 -5.49527,1.45108 -1.53881,0.95259 -2.73324,2.31534 -3.58324,4.08864 -0.83536,1.75863 -1.25316,3.84007 -1.25316,6.24354 0,3.64917 0.92329,6.52134 2.76986,8.61705 1.84657,2.08105 4.36696,3.12177 7.56181,3.12177 2.11036,0 3.93528,-0.46921 5.47409,-1.40715 1.5388,-0.95259 2.71862,-2.3083 3.53932,-4.06693 0.82069,-1.75864 1.23093,-3.84662 1.23093,-6.26474 0,-2.41812 -0.41781,-4.50661 -1.25316,-6.26525 -0.83535,-1.75863 -2.02221,-3.11434 -3.56102,-4.06693 -1.52415,-0.96725 -3.33445,-1.45108 -5.43016,-1.45108 z m 20.80442,0 c -2.11037,0 -3.94233,0.48383 -5.49579,1.45108 -1.53881,0.95259 -2.73324,2.31534 -3.58325,4.08864 -0.83535,1.75863 -1.25315,3.84007 -1.25315,6.24354 0,3.64917 0.92329,6.52134 2.76986,8.61705 1.84656,2.08105 4.36747,3.12177 7.56233,3.12177 2.11036,0 3.93476,-0.46921 5.47357,-1.40715 1.5388,-0.95259 2.71862,-2.3083 3.53931,-4.06693 0.8207,-1.75864 1.23094,-3.84662 1.23094,-6.26474 0,-2.41812 -0.41729,-4.50661 -1.25264,-6.26525 -0.83535,-1.75863 -2.02273,-3.11434 -3.56154,-4.06693 -1.52415,-0.96725 -3.33394,-1.45108 -5.42964,-1.45108 z m -20.80442,5.80378 c 1.31898,0 2.35265,0.52767 3.10007,1.58285 0.76208,1.04052 1.14308,2.50609 1.14308,4.39663 0,1.87588 -0.37395,3.33389 -1.12137,4.37441 -0.73277,1.04053 -1.77349,1.56063 -3.12178,1.56063 -1.33363,0 -2.3814,-0.52767 -3.14347,-1.58285 -0.76208,-1.05518 -1.14309,-2.50562 -1.14309,-4.35219 0,-1.86122 0.38101,-3.31974 1.14309,-4.37492 0.76207,-1.06984 1.80984,-1.60456 3.14347,-1.60456 z m 20.80442,0 c 1.31897,0 2.35213,0.52767 3.09955,1.58285 0.76207,1.04052 1.14308,2.50609 1.14308,4.39663 0,1.87588 -0.37344,3.33389 -1.12086,4.37441 -0.73276,1.04053 -1.77349,1.56063 -3.12177,1.56063 -1.33364,0 -2.3814,-0.52767 -3.14348,-1.58285 -0.76207,-1.05518 -1.14308,-2.50562 -1.14308,-4.35219 0,-1.86122 0.38101,-3.31974 1.14308,-4.37492 0.76208,-1.06984 1.80984,-1.60456 3.14348,-1.60456 z"
         transform="translate(-24.098297,-98.499999)" />
    </g>
  </g>
</svg>
