<?xml version="1.0" encoding="UTF-8" standalone="no"?>
<!-- Created with Inkscape (http://www.inkscape.org/) -->

<svg
   width="100mm"
   height="100mm"
   viewBox="0 0 100 100"
   version="1.1"
   id="svg1"
   inkscape:version="1.4.2 (ebf0e940d0, 2025-05-08)"
   sodipodi:docname="orb-logo-square-white.svg"
   inkscape:export-filename="orb-logo-square-white.png"
   inkscape:export-xdpi="130.048"
   inkscape:export-ydpi="130.048"
   xmlns:inkscape="http://www.inkscape.org/namespaces/inkscape"
   xmlns:sodipodi="http://sodipodi.sourceforge.net/DTD/sodipodi-0.dtd"
   xmlns="http://www.w3.org/2000/svg"
   xmlns:svg="http://www.w3.org/2000/svg">
  <sodipodi:namedview
     id="namedview1"
     pagecolor="#ffffff"
     bordercolor="#000000"
     borderopacity="0.25"
     inkscape:showpageshadow="2"
     inkscape:pageopacity="0.0"
     inkscape:pagecheckerboard="0"
     inkscape:deskcolor="#d1d1d1"
     inkscape:document-units="mm"
     showguides="true"
     inkscape:zoom="2.2009974"
     inkscape:cx="189.23239"
     inkscape:cy="189.45956"
     inkscape:window-width="1904"
     inkscape:window-height="1088"
     inkscape:window-x="26"
     inkscape:window-y="23"
     inkscape:window-maximized="0"
     inkscape:current-layer="layer4"
     showgrid="false">
    <sodipodi:guide
       position="-1.8237133e-07,297.00001"
       orientation="1,0"
       id="guide49"
       inkscape:locked="false" />
    <sodipodi:guide
       position="161.8034,197"
       orientation="0,-1"
       id="guide50"
       inkscape:locked="false" />
    <sodipodi:guide
       position="161.8034,297.00001"
       orientation="1,0"
       id="guide51"
       inkscape:locked="false" />
    <sodipodi:guide
       position="-1.8237133e-07,297.00001"
       orientation="0,-1"
       id="guide52"
       inkscape:locked="false" />
    <sodipodi:guide
       position="61.803404,297.00001"
       orientation="1,0"
       id="guide53"
       inkscape:locked="false" />
    <sodipodi:guide
       position="79.271243,39.460663"
       orientation="-1,0"
       id="guide45"
       inkscape:locked="false" />
    <sodipodi:guide
       position="89.785141,36.810532"
       orientation="0.45353053,-0.89124074"
       id="guide54"
       inkscape:locked="false" />
    <sodipodi:guide
       position="73.011999,34.34848"
       orientation="-116.31923,0"
       id="guide55"
       inkscape:locked="false" />
    <sodipodi:guide
       position="73.011999,65.124611"
       orientation="0,55.334725"
       id="guide56"
       inkscape:locked="false" />
    <sodipodi:guide
       position="92.225096,46.4391"
       orientation="45.696831,22.266822"
       id="guide57"
       inkscape:locked="false" />
    <sodipodi:guide
       position="98.116526,34.34848"
       orientation="0,-26.753424"
       id="guide58"
       inkscape:locked="false" />
    <sodipodi:guide
       position="91.038016,34.34848"
       orientation="-42.124195,-21.435969"
       id="guide59"
       inkscape:locked="false" />
    <sodipodi:guide
       position="85.366416,45.49384"
       orientation="0,-22.765342"
       id="guide60"
       inkscape:locked="false" />
    <sodipodi:guide
       position="79.343085,34.34848"
       orientation="-1.1368684e-13,-23.928514"
       id="guide62"
       inkscape:locked="false" />
    <sodipodi:guide
       position="79.343085,51.451221"
       orientation="0,31.738545"
       id="guide63"
       inkscape:locked="false" />
    <sodipodi:guide
       position="74.309779,57.129639"
       orientation="0,-31.738545"
       id="guide64"
       inkscape:locked="false" />
    <sodipodi:guide
       position="82.334851,51.451221"
       orientation="1,0"
       id="guide66"
       inkscape:locked="false" />
    <sodipodi:guide
       position="0,88.888533"
       orientation="0,-1"
       id="guide6"
       inkscape:locked="false" />
    <sodipodi:guide
       position="0,11.110852"
       orientation="0,-1"
       id="guide7"
       inkscape:locked="false" />
    <sodipodi:guide
       position="88.888534,88.888533"
       orientation="1,0"
       id="guide8"
       inkscape:locked="false" />
    <sodipodi:guide
       position="69.385796,61.763029"
       orientation="0,-1"
       id="guide3"
       inkscape:locked="false" />
    <sodipodi:guide
       position="49.999967,38.196595"
       orientation="0,-1"
       id="guide4"
       inkscape:locked="false" />
  </sodipodi:namedview>
  <defs
     id="defs1" />
  <g
     inkscape:groupmode="layer"
     id="g80"
     inkscape:label="Background"
     style="display:inline">
    <path
       id="path8"
       style="font-variation-settings:'wght' 200;fill:#ff9955;stroke-width:0.134966;stroke-linecap:round;stroke-linejoin:bevel;paint-order:stroke markers fill"
       inkscape:transform-center-x="-1.6543698"
       inkscape:transform-center-y="-2.8654527"
       d="M 27.169286,6.2478746 C 26.503101,6.280333 25.818745,6.4858201 25.112256,6.8937118 16.069211,12.114716 37.547336,30.752726 32.326331,39.795771 27.105326,48.838817 0.22525862,39.557987 0.22525859,49.999996 0.22525766,60.442007 27.105327,51.160435 32.32633,60.203482 c 5.221006,9.043046 -16.25712,27.681796 -7.214075,32.9028 9.043046,5.221008 14.445731,-22.698575 24.887742,-22.698574 10.442009,0 15.843953,27.91958 24.886998,22.698576 C 83.93004,87.885279 62.452659,69.246527 67.673663,60.203482 72.894669,51.160435 99.774735,60.442009 99.774736,49.999998 99.774737,39.557987 72.894669,48.838817 67.673664,39.795772 62.452658,30.752726 83.930042,12.114719 74.886996,6.8937115 65.843951,1.6727068 60.442008,29.592288 49.999998,29.592287 40.373769,29.592288 35.030263,5.8648595 27.169286,6.2478746 Z M 49.999997,36.949633 A 13.049974,13.049974 0 0 1 63.049619,49.999998 13.049974,13.049974 0 0 1 49.999998,63.049618 13.049974,13.049974 0 0 1 36.949635,49.999997 13.049974,13.049974 0 0 1 49.999997,36.949633 Z" />
    <path
       style="font-variation-settings:'wght' 200;fill:#000000;stroke-width:0.134966;stroke-linecap:round;stroke-linejoin:bevel;paint-order:stroke markers fill"
       d="m 50.000003,0.22526077 c -10.442012,0 -1.161181,26.88007023 -10.204228,32.10107523 C 30.752729,37.547341 12.11472,16.069215 6.8937147,25.11226 1.672708,34.155306 29.592291,39.557992 29.592291,50.000003 c 0,10.44201 -27.9195812,15.843952 -22.6985763,24.887 5.2210053,9.043045 23.8590143,-12.434339 32.9020603,-7.213334 9.043046,5.221007 -0.237784,32.101075 10.204228,32.101075 10.442009,0 1.160436,-26.88007 10.203484,-32.101075 9.043045,-5.221005 27.681797,16.256379 32.902803,7.213334 5.221005,-9.043048 -22.698578,-14.44499 -22.698578,-24.887 0,-10.442011 27.919581,-15.844695 22.698578,-24.887743 C 87.885286,16.069215 69.246532,37.547341 60.203487,32.326336 51.160439,27.105329 60.442012,0.22526077 50.000003,0.22526077 Z"
       id="path7" />
    <path
       style="font-variation-settings:'wght' 200;fill:#ffffff;stroke-width:0.122077;stroke-linecap:round;stroke-linejoin:bevel;paint-order:stroke markers fill"
       d="M 49.999967,38.195858 A 11.803757,11.803757 0 0 1 61.803404,49.999968 11.803757,11.803757 0 0 1 49.999967,61.803405 11.803757,11.803757 0 0 1 38.195857,49.999968 11.803757,11.803757 0 0 1 49.999967,38.195858 Z"
       id="path2" />
    <path
       id="rect1"
       style="display:inline;font-variation-settings:'wght' 200;fill:#000000;stroke:none;stroke-width:8.79999;stroke-linecap:round;stroke-linejoin:bevel;stroke-dasharray:none;paint-order:stroke markers fill"
       d="M 50.000049 0.22530924 L 50.000049 36.949683 A 13.049975 13.049975 0 0 1 63.049382 50.000049 A 13.049975 13.049975 0 0 1 50.000049 63.049382 L 50.000049 100.0001 L 100.0001 100.0001 L 100.0001 0.22530924 L 50.000049 0.22530924 z " />
    <path
       style="font-variation-settings:'wght' 200;fill:#000000;stroke-width:0.0737368;stroke-linecap:round;stroke-linejoin:bevel;paint-order:stroke markers fill"
       d="m 50.000253,42.870361 a 7.1296785,7.1296785 0 0 1 7.129485,7.129893 7.1296785,7.1296785 0 0 1 -7.129485,7.129485 7.1296785,7.1296785 0 0 1 -7.129893,-7.129485 7.1296785,7.1296785 0 0 1 7.129893,-7.129893 z"
       id="path3" />
  </g>
  <g
     inkscape:groupmode="layer"
     id="layer4"
     inkscape:label="Traced wordmark"
     style="display:inline">
    <path
       id="text48"
       style="font-size:43.9659px;font-family:Overpass;-inkscape-font-specification:'Overpass, @wght=800';font-variation-settings:'wght' 800;letter-spacing:-3.56538px;display:inline;fill:#ffffff;stroke:none;stroke-width:1.96904;stroke-linecap:round;stroke-linejoin:round;stroke-dasharray:none;paint-order:stroke markers fill"
       d="m 65.152461,38.236971 v 23.566036 h 4.847748 v -8.534109 -4.561654 -4.501896 -1.406723 h 6.430157 c 0.740653,0 1.318757,0.145872 1.733966,0.437645 0.426443,0.291767 0.718186,0.66225 0.87529,1.111129 0.168331,0.448886 0.252462,0.908891 0.252462,1.380213 0,0.516209 -0.08993,1.004393 -0.269476,1.464489 -0.16833,0.448887 -0.46548,0.813573 -0.891915,1.094122 -0.415209,0.280548 -0.982117,0.421021 -1.700327,0.421021 h -4.139047 l 2.321189,4.561654 4.342831,8.534109 h 5.420328 L 79.864268,52.54516 c 0.976314,-0.359104 1.795606,-0.909028 2.457703,-1.649681 0.662104,-0.751878 1.156077,-1.582359 1.481512,-2.491341 0.336661,-0.908984 0.504915,-1.806611 0.504915,-2.69315 0,-1.324193 -0.252385,-2.553327 -0.757377,-3.686753 -0.493766,-1.144645 -1.324246,-2.059256 -2.491341,-2.743796 -1.155862,-0.695765 -2.721513,-1.043468 -4.696583,-1.043468 z"
       sodipodi:nodetypes="cccccccsccsccscccccccsccsc" />
    <path
       id="path1"
       style="font-size:43.9659px;font-family:Overpass;-inkscape-font-specification:'Overpass, @wght=800';font-variation-settings:'wght' 800;letter-spacing:-4.31802px;display:inline;fill:#ffffff;stroke:none;stroke-width:1.96904;stroke-linecap:round;stroke-linejoin:round;stroke-dasharray:none;paint-order:stroke markers fill"
       d="m 65.381344,65.322714 v 23.566434 h 11.227649 c 1.492526,0 2.749446,-0.202222 3.770656,-0.606222 1.03241,-0.415209 1.8571,-0.959344 2.47432,-1.632667 0.62842,-0.673321 1.08303,-1.425069 1.36358,-2.255496 0.29177,-0.830435 0.43765,-1.666703 0.43765,-2.508356 0,-0.673314 -0.12349,-1.363329 -0.37038,-2.070312 -0.23566,-0.706991 -0.61733,-1.346836 -1.14476,-1.919157 -0.51621,-0.572322 -1.19503,-1.015343 -2.03667,-1.329561 1.0212,-0.460096 1.73358,-1.122323 2.13757,-1.986419 0.41522,-0.875321 0.62285,-1.840486 0.62285,-2.895355 0,-1.066088 -0.24121,-2.081416 -0.72375,-3.046512 -0.47133,-0.976314 -1.27363,-1.773225 -2.40705,-2.390433 -1.1222,-0.617209 -2.64849,-0.925944 -4.578676,-0.925944 z m 4.847747,4.511399 h 5.992514 c 0.774324,0 1.357814,0.123489 1.750584,0.370376 0.39277,0.235661 0.65094,0.53281 0.77439,0.891914 0.13466,0.359105 0.20221,0.729581 0.20221,1.111129 0,0.729434 -0.26938,1.312936 -0.80803,1.750589 -0.52744,0.43766 -1.363718,0.656469 -2.508358,0.656469 h -3.1122 v 4.359845 h 3.398685 c 1.066093,0 1.873803,0.140075 2.423673,0.420631 0.54988,0.280548 0.92576,0.639844 1.12776,1.077496 0.20199,0.426444 0.3031,0.875253 0.3031,1.346575 0,0.37033 -0.0895,0.751993 -0.26908,1.144768 -0.16832,0.381548 -0.46585,0.706868 -0.8923,0.976198 -0.41522,0.269323 -0.99872,0.404007 -1.75059,0.404007 h -4.341248 -2.29111 V 78.974435 74.61459 Z" />
  </g>
</svg>
