<?xml version="1.0" encoding="UTF-8" standalone="no"?>
<!-- Created with Inkscape (http://www.inkscape.org/) -->

<svg
   width="100mm"
   height="100mm"
   viewBox="0 0 100 100"
   version="1.1"
   id="svg1"
   inkscape:version="1.4.2 (ebf0e940d0, 2025-05-08)"
   sodipodi:docname="orb-logo-square.svg"
   inkscape:export-filename="orb-logo-square.png"
   inkscape:export-xdpi="130.048"
   inkscape:export-ydpi="130.048"
   xmlns:inkscape="http://www.inkscape.org/namespaces/inkscape"
   xmlns:sodipodi="http://sodipodi.sourceforge.net/DTD/sodipodi-0.dtd"
   xmlns="http://www.w3.org/2000/svg"
   xmlns:svg="http://www.w3.org/2000/svg">
  <sodipodi:namedview
     id="namedview1"
     pagecolor="#ffffff"
     bordercolor="#000000"
     borderopacity="0.25"
     inkscape:showpageshadow="2"
     inkscape:pageopacity="0.0"
     inkscape:pagecheckerboard="0"
     inkscape:deskcolor="#d1d1d1"
     inkscape:document-units="mm"
     showguides="true"
     inkscape:zoom="0.69924418"
     inkscape:cx="55.05945"
     inkscape:cy="71.50578"
     inkscape:window-width="1904"
     inkscape:window-height="1088"
     inkscape:window-x="26"
     inkscape:window-y="23"
     inkscape:window-maximized="0"
     inkscape:current-layer="g80"
     showgrid="false">
    <sodipodi:guide
       position="-1.8237133e-07,297.00001"
       orientation="1,0"
       id="guide49"
       inkscape:locked="false" />
    <sodipodi:guide
       position="161.8034,197"
       orientation="0,-1"
       id="guide50"
       inkscape:locked="false" />
    <sodipodi:guide
       position="161.8034,297.00001"
       orientation="1,0"
       id="guide51"
       inkscape:locked="false" />
    <sodipodi:guide
       position="-1.8237133e-07,297.00001"
       orientation="0,-1"
       id="guide52"
       inkscape:locked="false" />
    <sodipodi:guide
       position="61.803404,297.00001"
       orientation="1,0"
       id="guide53"
       inkscape:locked="false" />
    <sodipodi:guide
       position="79.271243,39.460663"
       orientation="-1,0"
       id="guide45"
       inkscape:locked="false" />
    <sodipodi:guide
       position="89.785141,36.810532"
       orientation="0.45353053,-0.89124074"
       id="guide54"
       inkscape:locked="false" />
    <sodipodi:guide
       position="73.011999,34.34848"
       orientation="-116.31923,0"
       id="guide55"
       inkscape:locked="false" />
    <sodipodi:guide
       position="73.011999,65.124611"
       orientation="0,55.334725"
       id="guide56"
       inkscape:locked="false" />
    <sodipodi:guide
       position="92.225096,46.4391"
       orientation="45.696831,22.266822"
       id="guide57"
       inkscape:locked="false" />
    <sodipodi:guide
       position="98.116526,34.34848"
       orientation="0,-26.753424"
       id="guide58"
       inkscape:locked="false" />
    <sodipodi:guide
       position="91.038016,34.34848"
       orientation="-42.124195,-21.435969"
       id="guide59"
       inkscape:locked="false" />
    <sodipodi:guide
       position="85.366416,45.49384"
       orientation="0,-22.765342"
       id="guide60"
       inkscape:locked="false" />
    <sodipodi:guide
       position="79.343085,34.34848"
       orientation="-1.1368684e-13,-23.928514"
       id="guide62"
       inkscape:locked="false" />
    <sodipodi:guide
       position="79.343085,51.451221"
       orientation="0,31.738545"
       id="guide63"
       inkscape:locked="false" />
    <sodipodi:guide
       position="87.740576,59.167231"
       orientation="0,-31.738545"
       id="guide64"
       inkscape:locked="false" />
    <sodipodi:guide
       position="82.334851,51.451221"
       orientation="1,0"
       id="guide66"
       inkscape:locked="false" />
    <sodipodi:guide
       position="0,88.888533"
       orientation="0,-1"
       id="guide6"
       inkscape:locked="false" />
    <sodipodi:guide
       position="0,11.110852"
       orientation="0,-1"
       id="guide7"
       inkscape:locked="false" />
    <sodipodi:guide
       position="88.888534,88.888533"
       orientation="1,0"
       id="guide8"
       inkscape:locked="false" />
  </sodipodi:namedview>
  <defs
     id="defs1" />
  <g
     inkscape:groupmode="layer"
     id="g80"
     inkscape:label="Background"
     style="display:inline">
    <path
       style="font-variation-settings:'wght' 200;opacity:1;fill:#000000;stroke-width:0.0742371;stroke-linecap:round;stroke-linejoin:bevel;paint-order:stroke markers fill"
       d="M 0,0 61.802884,100 H 100 V 0 H 61.803463 Z"
       id="path78"
       sodipodi:nodetypes="cccccc" />
    <path
       style="font-variation-settings:'wght' 200;display:inline;fill:#ff9955;stroke-width:0.0742371;stroke-linecap:round;stroke-linejoin:bevel;paint-order:stroke markers fill"
       d="m 0,44.447416 v 33.329232 l 13.734562,22.222933 h 6.866764 6.866765 6.865731 l -13.734046,-22.2219 h -5.17e-4 z"
       id="path11" />
    <path
       style="font-variation-settings:'wght' 200;display:inline;fill:#ff9955;stroke-width:0.0742371;stroke-linecap:round;stroke-linejoin:bevel;paint-order:stroke markers fill"
       d="m -5.1676432e-4,33.333366 v 0.0016 L 13.733012,55.557332 v -0.0016 z"
       id="path9" />
    <path
       style="font-variation-settings:'wght' 200;display:inline;fill:#ff9955;stroke-width:0.0742371;stroke-linecap:round;stroke-linejoin:bevel;paint-order:stroke markers fill"
       d="m 0,0 v 22.221383 l 5.1676432e-4,0.001 v 11.11095 L 13.734045,55.555265 v 0.0016 5.16e-4 l 27.466541,44.442249 h 0.001 L 20.601326,66.666732 41.202136,99.999581 h 6.866765 6.866764 6.866764 L 41.201619,66.666732 11.11095,17.978231 6.8667643,11.11095 Z"
       id="path5" />
    <path
       id="path14"
       style="font-variation-settings:'wght' 200;display:inline;fill:#ffffff;stroke-width:0.0742371;stroke-linecap:round;stroke-linejoin:bevel;paint-order:stroke markers fill"
       d="m -0.00161165,33.333573 v 11.11147 L 20.599198,77.777883 h 5.17e-4 l 13.734045,22.22191 h 6.866764 L 13.73295,55.555473 v 0.002 z" />
    <path
       style="font-variation-settings:'wght' 200;display:inline;fill:#000000;stroke-width:0.0742371;stroke-linecap:round;stroke-linejoin:bevel;paint-order:stroke markers fill"
       d="M 0,77.77819 V 100 h 13.733467 z"
       id="path10" />
  </g>
  <g
     inkscape:groupmode="layer"
     id="layer4"
     inkscape:label="Traced wordmark"
     style="display:inline">
    <path
       id="path51"
       style="font-size:43.9659px;font-family:Overpass;-inkscape-font-specification:'Overpass, @wght=200';font-variation-settings:'wght' 200;letter-spacing:-3.17504px;fill:#ffffff;stroke-width:120.317;stroke-linecap:round;stroke-linejoin:round;paint-order:stroke markers fill"
       d="m 79.04606,11.111466 c -1.766766,0 -3.265703,0.364536 -4.496735,1.094039 -1.231037,0.718102 -2.222746,1.681597 -2.975047,2.88984 -0.740902,1.196841 -1.282224,2.524475 -1.624179,3.983477 -0.341954,1.459007 -0.513258,2.929721 -0.513258,4.411527 0,1.4818 0.171304,2.952118 0.513258,4.411125 0.341955,1.459001 0.883277,2.792516 1.624179,4.000759 0.752301,1.196841 1.74401,2.159935 2.975047,2.889438 1.231032,0.718102 2.729969,1.077158 4.496735,1.077158 1.766766,0 3.259817,-0.359056 4.479452,-1.077158 1.231037,-0.729503 2.222745,-1.692597 2.975048,-2.889438 0.752297,-1.208243 1.299506,-2.541758 1.641461,-4.000759 0.341955,-1.459007 0.512856,-2.929325 0.512856,-4.411125 0,-1.481806 -0.170901,-2.95252 -0.512856,-4.411527 -0.341955,-1.459002 -0.889164,-2.786636 -1.641461,-3.983477 -0.752303,-1.208243 -1.744011,-2.171738 -2.975048,-2.88984 -1.219635,-0.729503 -2.712686,-1.094039 -4.479452,-1.094039 z m 0,1.743952 c 1.436208,0 2.644285,0.302219 3.624558,0.90634 0.980267,0.59272 1.766981,1.396282 2.359701,2.410745 0.604121,1.014469 1.037257,2.153947 1.299422,3.419175 0.273564,1.253836 0.410366,2.553649 0.410366,3.898671 0,1.219634 -0.136802,2.456332 -0.410366,3.710168 -0.262165,1.242434 -0.695301,2.387797 -1.299422,3.436457 -0.59272,1.04866 -1.379434,1.892201 -2.359701,2.530519 -0.980273,0.626915 -2.18835,0.940504 -3.624558,0.940504 -1.424811,0 -2.633295,-0.296333 -3.62496,-0.889058 -0.980273,-0.592719 -1.772465,-1.396683 -2.376581,-2.411147 -0.592725,-1.014463 -1.02586,-2.153941 -1.299424,-3.419174 -0.262164,-1.265233 -0.393082,-2.56465 -0.393082,-3.898269 0,-1.231037 0.130918,-2.468136 0.393082,-3.710571 0.273564,-1.253835 0.706699,-2.40508 1.299424,-3.453739 0.604116,-1.04866 1.396308,-1.886321 2.376581,-2.513236 0.991665,-0.638318 2.200149,-0.957385 3.62496,-0.957385 z"
       sodipodi:nodetypes="sccsssccsccsssccsscccscccscccscccs" />
    <path
       id="text48"
       style="font-size:43.9659px;font-family:Overpass;-inkscape-font-specification:'Overpass, @wght=800';font-variation-settings:'wght' 800;letter-spacing:-3.56538px;display:inline;fill:#ffffff;stroke-width:120.317;stroke-linecap:round;stroke-linejoin:round;paint-order:stroke markers fill"
       d="m 69.385797,38.236971 v 23.936634 h 4.923983 v -8.668316 -4.63339 -4.572693 -1.428845 h 6.531278 c 0.7523,0 1.339495,0.148166 1.761234,0.444528 0.433149,0.296355 0.72948,0.672664 0.889055,1.128602 0.170978,0.455945 0.256432,0.923184 0.256432,1.401918 0,0.524327 -0.09134,1.020188 -0.273714,1.48752 -0.170977,0.455946 -0.4728,0.826367 -0.905941,1.111328 -0.421739,0.28496 -0.997562,0.427642 -1.727066,0.427642 H 76.63692 l 2.357692,4.63339 4.411126,8.668316 h 5.505568 L 84.328961,52.77017 c 0.991667,-0.364752 1.823844,-0.923324 2.496353,-1.675624 0.672516,-0.763702 1.174257,-1.607243 1.50481,-2.53052 0.341955,-0.923278 0.512855,-1.835021 0.512855,-2.735502 0,-1.345017 -0.256354,-2.593481 -0.769287,-3.744731 -0.501531,-1.162645 -1.345071,-2.091639 -2.53052,-2.786944 -1.174039,-0.706707 -2.764311,-1.059878 -4.770441,-1.059878 z"
       sodipodi:nodetypes="cccccccsccsccscccccccsccsc" />
    <path
       id="path1"
       style="font-size:43.9659px;font-family:Overpass;-inkscape-font-specification:'Overpass, @wght=800';font-variation-settings:'wght' 800;letter-spacing:-4.31802px;display:inline;fill:#ffffff;stroke-width:120.317;stroke-linecap:round;stroke-linejoin:round;paint-order:stroke markers fill"
       d="m 69.385797,64.95211 v 23.937038 h 11.404216 c 1.515994,0 2.792676,-0.205402 3.829944,-0.615755 1.048654,-0.421739 1.886315,-0.974431 2.51323,-1.658342 0.638317,-0.68391 1.100073,-1.44748 1.385033,-2.290966 0.296362,-0.843494 0.444528,-1.692914 0.444528,-2.547802 0,-0.683903 -0.125431,-1.384769 -0.376201,-2.10287 -0.239367,-0.718109 -0.62704,-1.368016 -1.162769,-1.949338 -0.524327,-0.581322 -1.213822,-1.03131 -2.068702,-1.350469 1.03726,-0.467332 1.760852,-1.139973 2.171197,-2.017657 0.421747,-0.889087 0.632632,-1.86943 0.632632,-2.940888 0,-1.082853 -0.244991,-2.114148 -0.735127,-3.094421 -0.478734,-0.991667 -1.29366,-1.80111 -2.444903,-2.428025 C 83.839027,65.2657 82.288741,64.95211 80.328203,64.95211 Z m 4.923983,4.582345 h 6.08675 c 0.786499,0 1.379169,0.125431 1.778111,0.3762 0.398951,0.239367 0.661184,0.541189 0.786569,0.905941 0.136779,0.364752 0.205386,0.741054 0.205386,1.128602 0,0.740905 -0.273604,1.333583 -0.820736,1.778119 -0.535729,0.444543 -1.385157,0.666792 -2.547802,0.666792 H 76.63692 v 4.428408 h 3.452134 c 1.08286,0 1.903262,0.142278 2.461788,0.427246 0.558526,0.28496 0.940319,0.649906 1.145487,1.094441 0.205176,0.43315 0.307873,0.889017 0.307873,1.367751 0,0.376154 -0.09093,0.763819 -0.273309,1.16277 -0.17097,0.387548 -0.473188,0.717984 -0.906337,0.99155 -0.421747,0.273558 -1.014425,0.41036 -1.778119,0.41036 H 76.63692 74.30978 v -5.454118 -4.428408 z" />
  </g>
</svg>
